# xmcd CD database file
# Copyright (C) 1993-1998 Ti Kan
# 
# Track frame offsets:
#     182
#     19767
#     40040
#     59187
#     83110
#     107267
#     120887
#     142922
#     162490
#     175910
#     192480
#     209177
# 
# Disc length: 3063 seconds
# 
# Revision: 1
# Processed by: cddbd v1.4b41PL1 Copyright (c) Steve Scherf et al.
# Submitted via: DiscPlay 4.0.4
# 
DISCID=a40bf50c
DTITLE=Jay Owens - Movin' On
DYEAR=1900
DGENRE=
TTITLE0=Movin' On
TTITLE1=Who Is In Control
TTITLE2=Workin' Man
TTITLE3=I'm Gone
TTITLE4=Don't Make Me Wait
TTITLE5=Gonna Send For My Baby
TTITLE6=Caught In My Woman's Change
TTITLE7=I'm Addicted To You
TTITLE8=I Heard You Love The Blues
TTITLE9=Hurry Home
TTITLE10=Don't Walk Away
TTITLE11=Where's The Love
EXTD=
EXTT0=
EXTT1=
EXTT2=
EXTT3=
EXTT4=
EXTT5=
EXTT6=
EXTT7=
EXTT8=
EXTT9=
EXTT10=
EXTT11=
PLAYORDER=
